<svg width="2160" height="2160" viewBox="0 0 2160 2160" fill="none" xmlns="http://www.w3.org/2000/svg">
<path d="M830 830C830 1106.14 1053.86 1330 1330 1330H1560.52C1571.28 1330 1580 1338.72 1580 1349.48V1566.84C1580 1574.11 1574.11 1580 1566.84 1580H1320.13C911.368 1580 580 1248.63 580 839.868C580 834.418 584.418 830 589.868 830H830ZM1540 580C1562.09 580 1580 597.909 1580 620V1040C1580 1062.09 1562.09 1080 1540 1080H1346.57C1335.96 1080 1325.78 1075.78 1318.28 1068.28L1091.72 841.716C1084.22 834.215 1074.04 830 1063.43 830H830V620C830 597.909 847.909 580 870 580H1540Z" fill="black"/>
</svg>
